<svg width="165" height="116" viewBox="0 0 165 116" fill="none" xmlns="http://www.w3.org/2000/svg">
<g clip-path="url(#clip0_1_3166)">
<path d="M106.245 0.105164C94.1258 0.105164 84.2666 9.92926 84.2666 22.0044V24.2576H86.5279C98.6466 24.2576 108.506 14.4335 108.506 2.35834V0.105164H106.245Z" fill="#00C063"/>
<path d="M66.4552 7.2597H64.1941V9.51288C64.1941 21.5883 74.0534 31.4123 86.1719 31.4123H88.4331V29.1591C88.4333 17.0839 78.574 7.2597 66.4552 7.2597Z" fill="#00C063"/>
<path d="M104.787 46.6167C101.214 42.6466 95.2342 36.0019 87.7378 35.3812C76.2309 34.4285 68.6903 41.0429 68.3748 41.3248L69.766 42.8701H69.7661L71.1573 44.4152C71.1702 44.4038 71.4435 44.1639 71.9514 43.7955L79.888 47.1567L87.38 50.5387L88.6513 56.6571L102.924 50.7463C103.145 50.9812 103.352 51.1937 103.544 51.3796L106.444 48.3983C106.032 48.0006 105.455 47.3591 104.787 46.6167Z" fill="#2B7A4B"/>
<path d="M114.905 51.0826C114.188 49.3638 112.843 48.026 111.116 47.3158C109.389 46.6056 107.489 46.6078 105.763 47.3222L90.4294 53.6723C90.4438 52.7458 90.2727 51.8158 89.9136 50.9261C89.1844 49.12 87.7844 47.7273 85.9711 47.0042L71.8357 41.3662C68.7058 40.1169 65.2659 40.1393 62.1495 41.4294L55.1333 44.335L55.9329 46.252L55.9441 47.0028L55.9329 47.0104L56.0519 58.6545L55.2715 60.5794L78.2041 69.8094C79.7707 70.4382 81.4134 70.7525 83.0558 70.7525C84.745 70.7525 86.4333 70.4202 88.0373 69.7559L111.131 60.192C112.856 59.4776 114.199 58.1368 114.912 56.4163C115.625 54.6956 115.622 52.8016 114.905 51.0826Z" fill="#F9D5A5"/>
<path d="M55.9911 52.7008L56.0517 52.5507L55.9872 46.2294L55.9329 46.252L55.9441 47.0029L55.9329 47.0104L55.9911 52.7008Z" fill="#F9BE77"/>
<path d="M58.0164 38.7486H44.3335V66.6047H58.0164V38.7486Z" fill="#2B7A4B"/>
<path d="M58.1553 35.8231H53.9888V68.1589H58.1553V35.8231Z" fill="white"/>
<path d="M100.181 10.77L97.1691 7.90112L84.2666 21.382V24.1615L75.5306 15.0562L72.5188 17.9252L84.2666 30.1694V37.3609H88.4331V23.014L100.181 10.77Z" fill="#73E6A1"/>
</g>
<g filter="url(#filter0_d_1_3166)">
<path d="M11.5975 82.712C13.5995 82.712 15.2935 83.053 16.6795 83.735C18.0655 84.395 19.1215 85.341 19.8475 86.573C20.5735 87.783 20.9365 89.224 20.9365 90.896C20.9365 91.886 20.7825 92.887 20.4745 93.899C20.1885 94.889 19.7155 95.791 19.0555 96.605C18.4175 97.419 17.5485 98.079 16.4485 98.585C15.3705 99.069 14.0395 99.311 12.4555 99.311H9.02351V107H4.23851V82.712H11.5975ZM12.4225 94.658C13.1485 94.658 13.7535 94.537 14.2375 94.295C14.7215 94.031 15.0955 93.712 15.3595 93.338C15.6455 92.942 15.8435 92.535 15.9535 92.117C16.0855 91.699 16.1515 91.336 16.1515 91.028C16.1515 90.786 16.1075 90.467 16.0195 90.071C15.9535 89.653 15.7995 89.235 15.5575 88.817C15.3155 88.399 14.9415 88.047 14.4355 87.761C13.9515 87.475 13.2915 87.332 12.4555 87.332H9.02351V94.658H12.4225ZM24.855 80.963H29.475V107H24.855V80.963ZM40.7009 107.396C39.3589 107.396 38.1379 107.132 37.0379 106.604C35.9599 106.054 35.1019 105.218 34.4639 104.096C33.8259 102.974 33.5069 101.544 33.5069 99.806C33.5069 98.178 33.8369 96.77 34.4969 95.582C35.1569 94.394 36.0259 93.481 37.1039 92.843C38.1819 92.183 39.3259 91.853 40.5359 91.853C41.9659 91.853 43.0439 92.095 43.7699 92.579C44.5179 93.041 45.1339 93.558 45.6179 94.13L45.4199 94.691L45.8489 92.579H50.1389V107H45.5189V103.865L45.8819 104.855C45.8379 104.855 45.7059 104.987 45.4859 105.251C45.2659 105.493 44.9359 105.79 44.4959 106.142C44.0779 106.472 43.5499 106.758 42.9119 107C42.2959 107.264 41.5589 107.396 40.7009 107.396ZM42.0209 103.634C42.5709 103.634 43.0659 103.557 43.5059 103.403C43.9459 103.227 44.3309 102.985 44.6609 102.677C44.9909 102.347 45.2769 101.94 45.5189 101.456V97.925C45.3429 97.441 45.0789 97.034 44.7269 96.704C44.3749 96.352 43.9569 96.088 43.4729 95.912C42.9889 95.714 42.4499 95.615 41.8559 95.615C41.1959 95.615 40.5799 95.791 40.0079 96.143C39.4579 96.473 39.0179 96.935 38.6879 97.529C38.3579 98.123 38.1929 98.805 38.1929 99.575C38.1929 100.345 38.3689 101.038 38.7209 101.654C39.0729 102.27 39.5349 102.754 40.1069 103.106C40.7009 103.458 41.3389 103.634 42.0209 103.634ZM59.4864 92.579L59.8494 95.153L59.7834 94.922C60.2894 94.02 61.0044 93.294 61.9284 92.744C62.8524 92.172 63.9854 91.886 65.3274 91.886C66.6914 91.886 67.8244 92.293 68.7264 93.107C69.6504 93.899 70.1234 94.933 70.1454 96.209V107H65.5254V97.925C65.5034 97.287 65.3274 96.781 64.9974 96.407C64.6894 96.011 64.1614 95.813 63.4134 95.813C62.7094 95.813 62.0934 96.044 61.5654 96.506C61.0374 96.968 60.6304 97.595 60.3444 98.387C60.0584 99.179 59.9154 100.092 59.9154 101.126V107H55.2954V92.579H59.4864ZM76.6382 86.243H81.2582V92.513H84.7562V96.11H81.2582V107H76.6382V96.11H74.3942V92.513H76.6382V86.243Z" fill="white"/>
</g>
<g filter="url(#filter1_d_1_3166)">
<path d="M107.551 104.987C107.287 105.207 106.792 105.504 106.066 105.878C105.362 106.252 104.493 106.582 103.459 106.868C102.425 107.154 101.281 107.286 100.027 107.264C98.1134 107.22 96.3974 106.879 94.8794 106.241C93.3834 105.581 92.1074 104.69 91.0514 103.568C90.0174 102.446 89.2254 101.159 88.6754 99.707C88.1254 98.255 87.8504 96.704 87.8504 95.054C87.8504 93.206 88.1254 91.512 88.6754 89.972C89.2474 88.432 90.0504 87.101 91.0844 85.979C92.1404 84.857 93.3944 83.988 94.8464 83.372C96.2984 82.756 97.9044 82.448 99.6644 82.448C101.292 82.448 102.733 82.668 103.987 83.108C105.241 83.548 106.264 84.021 107.056 84.527L105.175 89.048C104.625 88.63 103.888 88.201 102.964 87.761C102.062 87.299 101.017 87.068 99.8294 87.068C98.9054 87.068 98.0144 87.266 97.1564 87.662C96.3204 88.036 95.5724 88.575 94.9124 89.279C94.2744 89.983 93.7684 90.808 93.3944 91.754C93.0204 92.678 92.8334 93.69 92.8334 94.79C92.8334 95.956 92.9984 97.023 93.3284 97.991C93.6804 98.959 94.1754 99.795 94.8134 100.499C95.4514 101.181 96.2104 101.709 97.0904 102.083C97.9924 102.457 99.0044 102.644 100.126 102.644C101.424 102.644 102.535 102.435 103.459 102.017C104.383 101.599 105.087 101.159 105.571 100.697L107.551 104.987ZM118.054 107.396C116.712 107.396 115.491 107.132 114.391 106.604C113.313 106.054 112.455 105.218 111.817 104.096C111.179 102.974 110.86 101.544 110.86 99.806C110.86 98.178 111.19 96.77 111.85 95.582C112.51 94.394 113.379 93.481 114.457 92.843C115.535 92.183 116.679 91.853 117.889 91.853C119.319 91.853 120.397 92.095 121.123 92.579C121.871 93.041 122.487 93.558 122.971 94.13L122.773 94.691L123.202 92.579H127.492V107H122.872V103.865L123.235 104.855C123.191 104.855 123.059 104.987 122.839 105.251C122.619 105.493 122.289 105.79 121.849 106.142C121.431 106.472 120.903 106.758 120.265 107C119.649 107.264 118.912 107.396 118.054 107.396ZM119.374 103.634C119.924 103.634 120.419 103.557 120.859 103.403C121.299 103.227 121.684 102.985 122.014 102.677C122.344 102.347 122.63 101.94 122.872 101.456V97.925C122.696 97.441 122.432 97.034 122.08 96.704C121.728 96.352 121.31 96.088 120.826 95.912C120.342 95.714 119.803 95.615 119.209 95.615C118.549 95.615 117.933 95.791 117.361 96.143C116.811 96.473 116.371 96.935 116.041 97.529C115.711 98.123 115.546 98.805 115.546 99.575C115.546 100.345 115.722 101.038 116.074 101.654C116.426 102.27 116.888 102.754 117.46 103.106C118.054 103.458 118.692 103.634 119.374 103.634ZM136.807 92.579L137.236 96.539L137.137 95.945C137.555 95.087 138.127 94.361 138.853 93.767C139.579 93.151 140.294 92.678 140.998 92.348C141.724 92.018 142.274 91.853 142.648 91.853L142.417 96.473C141.339 96.341 140.415 96.517 139.645 97.001C138.875 97.485 138.281 98.123 137.863 98.915C137.445 99.707 137.236 100.521 137.236 101.357V107H132.649V92.579H136.807ZM153.03 107.396C151.27 107.396 149.774 107.066 148.542 106.406C147.332 105.746 146.408 104.833 145.77 103.667C145.132 102.501 144.813 101.159 144.813 99.641C144.813 98.189 145.187 96.88 145.935 95.714C146.683 94.548 147.684 93.624 148.938 92.942C150.192 92.238 151.589 91.886 153.129 91.886C155.197 91.886 156.891 92.491 158.211 93.701C159.553 94.889 160.422 96.616 160.818 98.882L149.598 102.446L148.575 99.938L156.693 97.199L155.736 97.628C155.56 97.056 155.241 96.561 154.779 96.143C154.339 95.703 153.668 95.483 152.766 95.483C152.084 95.483 151.479 95.648 150.951 95.978C150.445 96.286 150.049 96.737 149.763 97.331C149.499 97.903 149.367 98.585 149.367 99.377C149.367 100.279 149.532 101.038 149.862 101.654C150.192 102.248 150.643 102.699 151.215 103.007C151.787 103.315 152.425 103.469 153.129 103.469C153.635 103.469 154.119 103.381 154.581 103.205C155.065 103.029 155.538 102.798 156 102.512L158.046 105.944C157.276 106.384 156.44 106.736 155.538 107C154.658 107.264 153.822 107.396 153.03 107.396Z" fill="#215B39"/>
</g>
<defs>
<filter id="filter0_d_1_3166" x="0.238525" y="80.963" width="88.5176" height="34.433" filterUnits="userSpaceOnUse" color-interpolation-filters="sRGB">
<feFlood flood-opacity="0" result="BackgroundImageFix"/>
<feColorMatrix in="SourceAlpha" type="matrix" values="0 0 0 0 0 0 0 0 0 0 0 0 0 0 0 0 0 0 127 0" result="hardAlpha"/>
<feOffset dy="4"/>
<feGaussianBlur stdDeviation="2"/>
<feComposite in2="hardAlpha" operator="out"/>
<feColorMatrix type="matrix" values="0 0 0 0 0 0 0 0 0 0 0 0 0 0 0 0 0 0 0.25 0"/>
<feBlend mode="normal" in2="BackgroundImageFix" result="effect1_dropShadow_1_3166"/>
<feBlend mode="normal" in="SourceGraphic" in2="effect1_dropShadow_1_3166" result="shape"/>
</filter>
<filter id="filter1_d_1_3166" x="83.8503" y="82.448" width="80.968" height="32.948" filterUnits="userSpaceOnUse" color-interpolation-filters="sRGB">
<feFlood flood-opacity="0" result="BackgroundImageFix"/>
<feColorMatrix in="SourceAlpha" type="matrix" values="0 0 0 0 0 0 0 0 0 0 0 0 0 0 0 0 0 0 127 0" result="hardAlpha"/>
<feOffset dy="4"/>
<feGaussianBlur stdDeviation="2"/>
<feComposite in2="hardAlpha" operator="out"/>
<feColorMatrix type="matrix" values="0 0 0 0 0 0 0 0 0 0 0 0 0 0 0 0 0 0 0.25 0"/>
<feBlend mode="normal" in2="BackgroundImageFix" result="effect1_dropShadow_1_3166"/>
<feBlend mode="normal" in="SourceGraphic" in2="effect1_dropShadow_1_3166" result="shape"/>
</filter>
<clipPath id="clip0_1_3166">
<rect width="71.1111" height="70.8571" fill="white" transform="translate(44.3335)"/>
</clipPath>
</defs>
</svg>
