<svg width="303" height="304" viewBox="0 0 303 304" fill="none" xmlns="http://www.w3.org/2000/svg">
<rect width="303" height="304" fill="#2DA35D"/>
<g clip-path="url(#clip0_20_905)">
<path d="M219.936 65.2582C188.238 65.2582 162.45 89.3827 162.45 119.035V124.568H168.365C200.063 124.568 225.851 100.444 225.851 70.7912V65.2582H219.936Z" fill="#00C063"/>
<path d="M115.862 82.8272H109.948V88.3602C109.948 118.013 135.736 142.137 167.433 142.137H173.348V136.604C173.348 106.952 147.56 82.8272 115.862 82.8272Z" fill="#00C063"/>
<path d="M216.122 179.474C206.777 169.725 191.137 153.408 171.529 151.884C141.431 149.544 121.708 165.787 120.883 166.479L124.522 170.274H124.522L128.161 174.068C128.195 174.04 128.91 173.451 130.238 172.546L150.997 180.8L170.594 189.105L173.919 204.13L211.25 189.615C211.828 190.192 212.37 190.714 212.873 191.17L220.458 183.849C219.38 182.872 217.871 181.297 216.122 179.474Z" fill="#2B7A4B"/>
<path d="M242.589 190.441C240.714 186.22 237.194 182.935 232.678 181.191C228.162 179.447 223.19 179.452 218.677 181.207L178.569 196.8C178.607 194.525 178.16 192.241 177.22 190.056C175.313 185.621 171.651 182.201 166.908 180.426L129.935 166.581C121.749 163.513 112.751 163.568 104.6 166.736L86.248 173.871L88.3395 178.578L88.3689 180.422L88.3395 180.441L88.6508 209.035L86.6095 213.762L146.593 236.427C150.69 237.971 154.987 238.743 159.283 238.743C163.701 238.743 168.117 237.927 172.313 236.296L232.718 212.81C237.23 211.056 240.741 207.763 242.606 203.538C244.47 199.313 244.465 194.662 242.589 190.441Z" fill="#F9D5A5"/>
<path d="M88.4916 194.415L88.6503 194.046L88.4814 178.523L88.3394 178.578L88.3688 180.422L88.3394 180.441L88.4916 194.415Z" fill="#F9BE77"/>
<path d="M93.7894 160.153H58V228.558H93.7894V160.153Z" fill="#2B7A4B"/>
<path d="M94.1527 152.969H83.2546V232.374H94.1527V152.969Z" fill="white"/>
<path d="M204.076 91.4473L196.198 84.4023L162.45 117.507V124.332L139.6 101.973L131.722 109.018L162.45 139.085V156.745H173.348V121.514L204.076 91.4473Z" fill="#73E6A1"/>
</g>
<defs>
<clipPath id="clip0_20_905">
<rect width="186" height="174" fill="white" transform="translate(58 65)"/>
</clipPath>
</defs>
</svg>
